<?xml version="1.0" standalone="no"?>
<!DOCTYPE svg PUBLIC "-//W3C//DTD SVG 20010904//EN"
 "http://www.w3.org/TR/2001/REC-SVG-20010904/DTD/svg10.dtd">
<svg version="1.0" xmlns="http://www.w3.org/2000/svg"
 width="700.000000pt" height="700.000000pt" viewBox="0 0 700.000000 700.000000"
 preserveAspectRatio="xMidYMid meet">
<metadata>
Created by potrace 1.14, written by Peter Selinger 2001-2017
</metadata>
<g transform="translate(0.000000,700.000000) scale(0.100000,-0.100000)"
fill="#000000" stroke="none">
<path d="M1748 5249 l-1748 -1749 1750 -1750 1750 -1750 877 878 c483 482
1271 1270 1751 1749 l872 873 -1750 1750 c-962 962 -1751 1750 -1752 1749 -2
0 -789 -788 -1750 -1750z m1489 -1736 c-13 -19 -1323 -1323 -1328 -1323 -15 0
-227 224 -222 234 2 6 248 254 546 552 l542 541 232 -1 c127 -1 231 -2 230 -3z
m1063 -4 c0 -3 -417 -423 -926 -934 l-926 -928 -119 119 -119 118 743 744
c408 409 771 773 807 808 35 36 70 69 76 72 15 9 464 9 464 1z m1067 -1 c-1
-4 -538 -545 -1194 -1201 l-1192 -1194 -118 119 -118 118 110 110 c61 61 547
548 1081 1083 l970 972 232 0 c128 0 231 -3 229 -7z m1021 3 c6 0 12 -5 12 -9
0 -9 -2884 -2895 -2897 -2899 -5 -2 -56 45 -115 104 l-107 108 1347 1350 1347
1350 200 -1 c110 -1 206 -2 213 -3z m-5427 -121 c-65 -66 -122 -120 -127 -120
-11 0 -234 221 -234 232 0 5 108 8 239 8 l239 0 -117 -120z m819 -275 c-217
-217 -398 -395 -401 -395 -9 0 -240 234 -241 244 0 5 120 130 267 277 l268
269 251 0 251 0 -395 -395z"/>
</g>
</svg>
